<svg width="156" height="156" viewBox="0 0 156 156" fill="none" xmlns="http://www.w3.org/2000/svg"><path d="M143.283 102.254C143.565 102.568 143.74 102.926 143.809 103.33C143.874 103.74 143.815 104.184 143.632 104.663L142.578 104.259L142.681 103.99C143.12 102.847 142.719 102.038 141.479 101.562L138.14 100.282L138.531 99.262L144.671 101.617L144.28 102.636L143.283 102.254Z" fill="black"/><path d="M109.903 137.498C110.186 138.107 110.311 138.698 110.277 139.269C110.246 139.848 110.076 140.364 109.766 140.817C109.449 141.273 109.022 141.626 108.485 141.876C108.021 142.092 107.538 142.184 107.038 142.152C106.541 142.127 106.107 141.989 105.735 141.739L107.202 144.895L106.201 145.36L102.456 137.308L103.457 136.843L103.979 137.963C104.009 137.517 104.163 137.088 104.439 136.677C104.719 136.274 105.116 135.952 105.631 135.712C106.161 135.466 106.704 135.372 107.261 135.431C107.81 135.493 108.318 135.703 108.784 136.059C109.25 136.416 109.623 136.896 109.903 137.498ZM104.849 139.835C105.058 140.285 105.331 140.634 105.667 140.884C106.004 141.133 106.369 141.272 106.762 141.301C107.151 141.341 107.53 141.275 107.9 141.103C108.27 140.93 108.567 140.687 108.79 140.371C109.014 140.055 109.139 139.688 109.165 139.27C109.191 138.852 109.1 138.418 108.891 137.968C108.678 137.511 108.402 137.155 108.062 136.898C107.726 136.649 107.363 136.504 106.974 136.465C106.588 136.432 106.21 136.502 105.84 136.674C105.47 136.846 105.174 137.09 104.95 137.406C104.722 137.732 104.595 138.104 104.569 138.522C104.547 138.948 104.64 139.385 104.849 139.835Z" fill="black"/><path d="M92.4082 140.381C93.0083 140.242 93.5855 140.252 94.1396 140.411C94.686 140.572 95.1573 140.87 95.5534 141.303C95.9435 141.747 96.2153 142.3 96.3688 142.962C96.5204 143.617 96.5138 144.226 96.3487 144.79C96.1777 145.363 95.8774 145.839 95.4478 146.218C95.02 146.604 94.5021 146.868 93.8942 147.009C93.2863 147.15 92.7053 147.141 92.1511 146.982C91.5987 146.83 91.1245 146.538 90.7284 146.104C90.3244 145.672 90.0458 145.125 89.8923 144.462C89.7388 143.8 89.7515 143.181 89.9303 142.606C90.1031 142.04 90.4073 141.563 90.8429 141.175C91.2785 140.787 91.8003 140.522 92.4082 140.381ZM92.6248 141.317C92.243 141.405 91.9052 141.578 91.6116 141.835C91.318 142.091 91.1114 142.423 90.9918 142.828C90.8645 143.235 90.8603 143.696 90.9795 144.211C91.0987 144.725 91.3011 145.138 91.5868 145.449C91.8724 145.761 92.1988 145.965 92.5659 146.06C92.9347 146.164 93.3101 146.171 93.692 146.083C94.0817 145.992 94.4194 145.82 94.7052 145.565C94.985 145.319 95.1808 144.995 95.2926 144.591C95.4044 144.187 95.4007 143.728 95.2816 143.214C95.1606 142.692 94.9651 142.273 94.695 141.958C94.4171 141.645 94.0976 141.435 93.7366 141.33C93.3773 141.233 93.0067 141.228 92.6248 141.317Z" fill="black"/><path d="M73.8396 148.828L75.8108 142.227L76.9388 142.214L78.5866 147.414L80.1065 142.175L81.2344 142.161L83.3789 148.711L82.2629 148.725L80.6834 143.224L79.1192 148.763L78.0033 148.777L76.3396 143.265L74.9195 148.815L73.8396 148.828Z" fill="black"/><path d="M63.1427 147.404C62.3591 147.243 61.7737 146.873 61.3863 146.295C60.9974 145.725 60.8949 144.993 61.0788 144.1L61.8608 140.304L62.9186 140.522L62.1681 144.165C62.0358 144.808 62.0955 145.33 62.3474 145.734C62.5976 146.144 63.0009 146.407 63.5572 146.522C64.1214 146.638 64.6083 146.555 65.0178 146.271C65.4195 145.987 65.6898 145.507 65.8286 144.833L66.5621 141.272L67.6316 141.492L66.305 147.933L65.2355 147.713L65.4243 146.796C65.145 147.082 64.8065 147.277 64.409 147.383C64.0036 147.488 63.5815 147.495 63.1427 147.404Z" fill="black"/><path d="M40.5954 136.383L41.0657 135.588L45.1873 138.025L44.7171 138.82L40.5954 136.383Z" fill="black"/><path d="M28.8371 119.786C29.1953 120.206 29.4441 120.646 29.5835 121.106C29.7116 121.564 29.7253 121.999 29.6245 122.411C29.5176 122.828 29.2932 123.188 28.9515 123.49L28.1962 122.604C28.4685 122.319 28.6173 121.982 28.6425 121.593C28.6565 121.202 28.487 120.8 28.134 120.386C27.7966 119.99 27.4345 119.763 27.0476 119.704C26.6495 119.644 26.2952 119.746 25.9847 120.011C25.7413 120.219 25.6005 120.454 25.5626 120.718C25.5246 120.982 25.5517 121.248 25.6439 121.516C25.736 121.784 25.8818 122.128 26.0812 122.547C26.3298 123.06 26.5084 123.491 26.6168 123.841C26.7201 124.184 26.734 124.545 26.6584 124.925C26.5715 125.304 26.3303 125.662 25.9346 125.999C25.5877 126.295 25.205 126.469 24.7866 126.521C24.3683 126.573 23.9511 126.503 23.535 126.311C23.1138 126.113 22.7267 125.807 22.3737 125.393C21.865 124.797 21.5988 124.182 21.5752 123.551C21.5465 122.913 21.7578 122.359 22.2093 121.89L22.988 122.803C22.7705 123.041 22.6665 123.351 22.6759 123.732C22.6793 124.118 22.8393 124.497 23.156 124.868C23.4519 125.215 23.7846 125.42 24.154 125.483C24.5175 125.552 24.8605 125.449 25.1831 125.174C25.4144 124.976 25.5486 124.752 25.5856 124.499C25.6175 124.241 25.5926 123.983 25.5108 123.727C25.4177 123.47 25.2719 123.127 25.0734 122.696C24.8309 122.178 24.6584 121.741 24.5561 121.387C24.4476 121.038 24.4342 120.671 24.5159 120.286C24.5914 119.906 24.8301 119.545 25.2318 119.202C25.5423 118.937 25.9045 118.77 26.3186 118.701C26.7327 118.632 27.1625 118.686 27.6081 118.863C28.0537 119.04 28.4633 119.348 28.8371 119.786Z" fill="black"/><path d="M19.9535 113.565C19.3587 113.894 18.775 114.062 18.2023 114.069C17.6227 114.079 17.094 113.942 16.6164 113.658C16.135 113.367 15.743 112.949 15.4405 112.403C15.0487 111.696 14.8983 111.02 14.989 110.375C15.0759 109.724 15.383 109.156 15.9103 108.671L16.4804 109.7C16.1849 109.992 16.0151 110.337 15.9712 110.737C15.9234 111.129 16.0159 111.535 16.2486 111.955C16.5511 112.501 16.9844 112.837 17.5484 112.963C18.1054 113.093 18.7267 112.969 19.4124 112.588C20.1051 112.205 20.5473 111.74 20.739 111.195C20.9307 110.649 20.8753 110.104 20.5728 109.558C20.3401 109.138 20.0482 108.843 19.6971 108.671C19.3461 108.5 18.9596 108.463 18.5375 108.56L17.9674 107.531C18.6405 107.359 19.2834 107.405 19.8963 107.669C20.5021 107.937 20.997 108.417 21.3809 109.11C21.6834 109.656 21.8305 110.21 21.8222 110.773C21.81 111.328 21.646 111.849 21.33 112.335C21.0141 112.821 20.5552 113.231 19.9535 113.565Z" fill="black"/><path d="M11.4643 100.723C11.0464 100.663 10.6822 100.5 10.3715 100.234C10.0583 99.9607 9.81895 99.5818 9.65342 99.0973L10.7209 98.7326L10.814 99.0051C11.2097 100.163 12.0359 100.528 13.2925 100.099L16.6765 98.9425L17.0295 99.9758L10.8067 102.102L10.4536 101.068L11.4643 100.723Z" fill="black"/><path d="M13.9368 87.5886C14.0302 88.1974 13.9768 88.7722 13.7765 89.3128C13.5749 89.8456 13.243 90.2931 12.7806 90.6554C12.3091 91.0111 11.7373 91.2405 11.0651 91.3436C10.4009 91.4456 9.79392 91.393 9.24416 91.186C8.68528 90.9723 8.23318 90.637 7.88788 90.1801C7.53466 89.7244 7.31073 89.1882 7.21607 88.5714C7.12142 87.9546 7.17424 87.3759 7.37455 86.8353C7.56695 86.2959 7.89434 85.845 8.35673 85.4826C8.8179 85.1124 9.38456 84.8757 10.0567 84.7726C10.7288 84.6694 11.3449 84.7286 11.905 84.9502C12.456 85.1651 12.9087 85.5044 13.2631 85.968C13.6176 86.4316 13.8421 86.9718 13.9368 87.5886ZM12.9879 87.7342C12.9284 87.3467 12.7816 86.9969 12.5476 86.6848C12.3135 86.3727 11.9989 86.1418 11.6036 85.992C11.2071 85.8343 10.7479 85.7955 10.226 85.8756C9.70409 85.9557 9.27705 86.1265 8.94486 86.3879C8.61267 86.6493 8.38507 86.9594 8.26208 87.3182C8.13118 87.6783 8.09546 88.052 8.15492 88.4395C8.2156 88.8348 8.36236 89.1846 8.5952 89.4888C8.81892 89.7863 9.12782 90.006 9.5219 90.1479C9.91598 90.2897 10.374 90.3206 10.8959 90.2405C11.4256 90.1592 11.8579 89.9958 12.1925 89.7502C12.5259 89.4967 12.7586 89.1939 12.8907 88.8417C13.015 88.4908 13.0473 88.1217 12.9879 87.7342Z" fill="black"/><path d="M4.1795 76.4037L13.0591 76.4859L13.049 77.5779L4.16939 77.4957L4.1795 76.4037Z" fill="black"/><path d="M4.88221 67.3929L13.6846 68.5646L13.5405 69.6471L4.73812 68.4754L4.88221 67.3929Z" fill="black"/><path d="M14.5113 52.2763C13.9033 51.9901 13.4292 51.6166 13.0891 51.1558C12.7418 50.6916 12.5419 50.1864 12.4897 49.6401C12.4408 49.0865 12.5425 48.542 12.7946 48.0064C13.0127 47.5431 13.324 47.1636 13.7286 46.8677C14.1259 46.5685 14.5477 46.3957 14.994 46.3493L11.8455 44.867L12.3157 43.8682L20.3498 47.6507L19.8796 48.6495L18.7613 48.1231C19.0239 48.4855 19.1808 48.913 19.2318 49.4056C19.2755 49.8949 19.1765 50.3965 18.9345 50.9104C18.6857 51.4387 18.3288 51.8587 17.8638 52.1703C17.4022 52.4747 16.8782 52.6391 16.2919 52.6637C15.7056 52.6883 15.112 52.5592 14.5113 52.2763ZM16.8939 47.2439C16.4452 47.0326 16.0117 46.939 15.5936 46.9632C15.1754 46.9874 14.8063 47.1143 14.486 47.3437C14.1619 47.5625 13.913 47.8565 13.7392 48.2256C13.5654 48.5947 13.4938 48.9722 13.5244 49.358C13.555 49.7437 13.6942 50.1055 13.9419 50.4432C14.1897 50.7809 14.5379 51.0554 14.9867 51.2667C15.4427 51.4813 15.8833 51.5783 16.3087 51.5575C16.7268 51.5333 17.098 51.4118 17.422 51.193C17.7389 50.9708 17.9842 50.6751 18.158 50.306C18.3318 49.9369 18.4034 49.5594 18.3728 49.1736C18.3384 48.7772 18.1973 48.4102 17.9495 48.0724C17.6945 47.7313 17.3427 47.4551 16.8939 47.2439Z" fill="black"/><path d="M26.0956 38.8534C25.7239 39.3446 25.2744 39.7067 24.747 39.9397C24.2244 40.1663 23.6721 40.24 23.0901 40.1607C22.5064 40.0702 21.9435 39.8199 21.4012 39.4096C20.8653 39.0041 20.4801 38.5321 20.2456 37.9935C20.0095 37.4437 19.935 36.8858 20.0222 36.3197C20.103 35.7489 20.3317 35.2146 20.7082 34.717C21.0847 34.2194 21.5366 33.8541 22.064 33.6211C22.585 33.3833 23.1366 33.304 23.7187 33.3833C24.3056 33.4562 24.8701 33.6978 25.4124 34.108C25.9547 34.5183 26.3414 35.0016 26.5727 35.5578C26.8024 36.1027 26.8744 36.6638 26.7888 37.2411C26.7032 37.8183 26.4721 38.3558 26.0956 38.8534ZM25.33 38.2741C25.5666 37.9615 25.7152 37.6126 25.7761 37.2272C25.8369 36.8419 25.7833 36.4552 25.6153 36.0673C25.4522 35.673 25.1601 35.3166 24.7391 34.998C24.318 34.6794 23.898 34.4921 23.479 34.4359C23.06 34.3797 22.679 34.4325 22.3359 34.5943C21.9865 34.7512 21.6935 34.986 21.457 35.2986C21.2156 35.6176 21.0669 35.9665 21.0109 36.3455C20.9534 36.7133 21.011 37.0879 21.1838 37.4694C21.3566 37.851 21.6535 38.201 22.0746 38.5196C22.502 38.843 22.9204 39.0392 23.3297 39.1081C23.7438 39.1707 24.1232 39.1267 24.4679 38.9761C24.8061 38.8207 25.0935 38.5867 25.33 38.2741Z" fill="black"/><path d="M34.9399 20.4709L37.6556 26.8017L36.7985 27.535L32.2014 24.5982L34.3912 29.5944L33.5341 30.3277L27.6908 26.6726L28.5388 25.9472L33.2762 29.1587L30.9278 23.9033L31.7758 23.1778L36.5848 26.3438L34.1193 21.1729L34.9399 20.4709Z" fill="black"/><path d="M44.0657 14.7103C44.7707 14.3322 45.457 14.2409 46.1248 14.4365C46.7888 14.6251 47.3363 15.1212 47.7674 15.9249L49.5994 19.3406L48.6477 19.8511L46.8894 16.5728C46.5793 15.9947 46.1984 15.6316 45.7468 15.4835C45.2914 15.3284 44.8134 15.385 44.3128 15.6535C43.8052 15.9257 43.4849 16.3018 43.352 16.7816C43.226 17.2577 43.3256 17.7989 43.6508 18.4052L45.3694 21.6094L44.4071 22.1255L41.2989 16.3305L42.2612 15.8143L42.7036 16.6392C42.7351 16.241 42.8696 15.8738 43.1069 15.5377C43.3513 15.1979 43.6709 14.9221 44.0657 14.7103Z" fill="black"/><path d="M68.4376 8.72512L68.5862 9.63709L63.8606 10.4072L63.712 9.4952L68.4376 8.72512Z" fill="black"/><path d="M88.0996 13.9342C87.5555 13.8412 87.0827 13.6631 86.6813 13.3997C86.2892 13.1298 85.9999 12.8044 85.8133 12.4236C85.6282 12.0348 85.57 11.615 85.639 11.1642L86.7863 11.3602C86.7597 11.7534 86.8615 12.1076 87.0917 12.4229C87.3311 12.7316 87.719 12.9318 88.2552 13.0234C88.7678 13.111 89.1915 13.0535 89.5264 12.851C89.8705 12.642 90.0769 12.3364 90.1456 11.9342C90.1995 11.6188 90.1566 11.3477 90.0168 11.1209C89.877 10.8941 89.6857 10.7072 89.443 10.5603C89.2003 10.4133 88.8683 10.2429 88.4469 10.0492C87.927 9.81427 87.5136 9.59755 87.2067 9.39901C86.9076 9.20183 86.6654 8.93319 86.48 8.59312C86.3039 8.2465 86.2596 7.8169 86.3472 7.30433C86.424 6.85485 86.6064 6.47615 86.8943 6.16826C87.1823 5.86036 87.5475 5.64681 87.9899 5.52762C88.4402 5.40978 88.9334 5.39667 89.4696 5.48829C90.2424 5.62033 90.8403 5.92132 91.2632 6.39126C91.694 6.86255 91.8863 7.42295 91.8403 8.07248L90.6574 7.87037C90.6719 7.5482 90.5534 7.24391 90.3021 6.95748C90.0521 6.66317 89.6866 6.47492 89.2055 6.39273C88.7561 6.31593 88.3692 6.37156 88.0448 6.55962C87.7219 6.7398 87.5247 7.03886 87.4533 7.45681C87.4021 7.75646 87.4431 8.01507 87.5764 8.23262C87.7175 8.45152 87.9016 8.63311 88.1285 8.7774C88.3647 8.91514 88.6967 9.0855 89.1247 9.28847C89.6432 9.53127 90.0552 9.75588 90.3608 9.9623C90.6678 10.1608 90.9133 10.4341 91.0973 10.782C91.2827 11.1221 91.3309 11.5524 91.242 12.0729C91.1732 12.475 91.0021 12.8353 90.7286 13.1538C90.455 13.4723 90.0904 13.7062 89.6347 13.8556C89.1791 14.005 88.6673 14.0312 88.0996 13.9342Z" fill="black"/><path d="M98.9073 13.0187C99.1527 12.3846 99.4932 11.8816 99.9287 11.5097C100.367 11.1304 100.861 10.8967 101.409 10.8088C101.966 10.7238 102.535 10.7939 103.117 11.0191C103.87 11.3107 104.419 11.7332 104.762 12.2864C105.113 12.8425 105.241 13.4755 105.147 14.1852L104.05 13.7608C104.09 13.3473 103.999 12.9732 103.777 12.6385C103.562 12.3066 103.231 12.0541 102.783 11.8809C102.201 11.6557 101.653 11.6752 101.139 11.9395C100.628 12.1963 100.231 12.6903 99.9481 13.4215C99.6622 14.1601 99.6204 14.8002 99.8226 15.3417C100.025 15.8831 100.417 16.2665 100.999 16.4917C101.447 16.6649 101.86 16.7048 102.239 16.6114C102.619 16.518 102.939 16.2989 103.201 15.9543L104.298 16.3787C103.891 16.9419 103.368 17.3185 102.728 17.5084C102.092 17.6909 101.404 17.6392 100.665 17.3534C100.083 17.1282 99.6154 16.797 99.2614 16.3597C98.9148 15.9254 98.707 15.4203 98.6382 14.8447C98.5693 14.269 98.659 13.6604 98.9073 13.0187Z" fill="black"/><path d="M113.653 17.4392C114.012 17.2177 114.396 17.1094 114.805 17.1145C115.221 17.1237 115.647 17.2613 116.085 17.5273L115.499 18.4912L115.253 18.3416C114.207 17.7058 113.339 17.9554 112.649 19.0902L110.792 22.146L109.859 21.5788L113.274 15.9594L114.207 16.5266L113.653 17.4392Z" fill="black"/><path d="M120.17 29.1079C119.708 28.7003 119.381 28.2248 119.188 27.6814C119.001 27.1432 118.969 26.5869 119.092 26.0125C119.226 25.4373 119.518 24.8948 119.968 24.385C120.413 23.8811 120.913 23.5326 121.468 23.3392C122.034 23.1452 122.595 23.113 123.153 23.2425C123.716 23.3661 124.232 23.6343 124.7 24.0472C125.168 24.4601 125.498 24.9383 125.691 25.4817C125.888 26.0192 125.926 26.5751 125.803 27.1495C125.686 27.7293 125.403 28.2741 124.953 28.7839C124.503 29.2938 123.992 29.6431 123.42 29.8318C122.859 30.0198 122.294 30.0494 121.725 29.9206C121.156 29.7917 120.638 29.5208 120.17 29.1079ZM120.805 28.3881C121.099 28.6475 121.436 28.8221 121.815 28.9117C122.195 29.0014 122.584 28.9771 122.984 28.8388C123.389 28.7058 123.767 28.4414 124.116 28.0455C124.466 27.6496 124.684 27.2449 124.772 26.8313C124.859 26.4178 124.835 26.0339 124.7 25.6796C124.57 25.3193 124.357 25.0095 124.064 24.7501C123.764 24.4854 123.427 24.3109 123.053 24.2265C122.691 24.1414 122.313 24.1707 121.919 24.3143C121.526 24.4578 121.155 24.7276 120.805 25.1234C120.451 25.5253 120.223 25.9277 120.124 26.3307C120.03 26.739 120.046 27.1206 120.17 27.4756C120.299 27.8246 120.511 28.1288 120.805 28.3881Z" fill="black"/><path d="M134.828 31.4432L127.958 37.0694L127.266 36.2246L134.136 30.5983L134.828 31.4432Z" fill="black"/><path d="M140.062 38.8116L132.553 43.5519L131.97 42.6285L139.479 37.8882L140.062 38.8116Z" fill="black"/><path d="M142.353 56.5876C143.004 56.4178 143.607 56.4009 144.163 56.5367C144.727 56.6705 145.204 56.9304 145.595 57.3164C145.987 57.7101 146.258 58.1933 146.407 58.7661C146.537 59.2615 146.541 59.7524 146.42 60.2387C146.306 60.7231 146.093 61.126 145.78 61.4475L149.147 60.5683L149.426 61.6365L140.834 63.8799L140.555 62.8117L141.751 62.4995C141.318 62.3895 140.923 62.1618 140.568 61.8162C140.221 61.4686 139.976 61.02 139.833 60.4704C139.685 59.9054 139.69 59.3543 139.847 58.8171C140.007 58.2876 140.304 57.8256 140.738 57.4311C141.172 57.0365 141.711 56.7554 142.353 56.5876ZM143.748 61.978C144.228 61.8527 144.621 61.6468 144.927 61.3603C145.232 61.0738 145.434 60.7399 145.533 60.3586C145.642 59.983 145.645 59.5978 145.542 59.203C145.438 58.8082 145.252 58.4725 144.981 58.196C144.71 57.9194 144.372 57.7308 143.965 57.6303C143.558 57.5297 143.115 57.5421 142.635 57.6674C142.148 57.7947 141.747 58.0027 141.434 58.2912C141.128 58.5777 140.921 58.9087 140.813 59.2843C140.712 59.658 140.713 60.0421 140.816 60.4369C140.919 60.8317 141.106 61.1673 141.377 61.4439C141.657 61.7262 142 61.9177 142.407 62.0182C142.821 62.1167 143.269 62.1033 143.748 61.978Z" fill="black"/><path d="M142.06 74.3159C142.031 73.7006 142.144 73.1346 142.4 72.6178C142.656 72.109 143.033 71.6985 143.53 71.3865C144.036 71.082 144.629 70.9135 145.308 70.8811C145.98 70.849 146.578 70.9646 147.103 71.2279C147.636 71.4987 148.051 71.8794 148.347 72.3698C148.651 72.8599 148.817 73.4166 148.847 74.0399C148.877 74.6632 148.764 75.2332 148.508 75.75C148.261 76.2664 147.888 76.6806 147.39 76.9927C146.893 77.3128 146.305 77.4891 145.625 77.5215C144.946 77.5539 144.34 77.4307 143.806 77.1519C143.28 76.8806 142.865 76.496 142.561 75.9979C142.257 75.4999 142.09 74.9392 142.06 74.3159ZM143.019 74.2701C143.038 74.6617 143.148 75.0249 143.348 75.3597C143.548 75.6945 143.837 75.957 144.214 76.1473C144.592 76.3455 145.045 76.432 145.572 76.4068C146.1 76.3816 146.542 76.2563 146.9 76.031C147.257 75.8057 147.516 75.521 147.676 75.177C147.844 74.8326 147.918 74.4647 147.9 74.0731C147.88 73.6736 147.771 73.3104 147.571 72.9835C147.38 72.6643 147.095 72.4136 146.718 72.2313C146.341 72.0491 145.889 71.9706 145.362 71.9958C144.826 72.0214 144.379 72.1388 144.021 72.3482C143.663 72.5655 143.4 72.8423 143.232 73.1787C143.071 73.5148 143.001 73.8786 143.019 74.2701Z" fill="black"/><path d="M143.733 104.366C143.434 105.108 142.966 105.618 142.328 105.895C141.697 106.176 140.959 106.146 140.113 105.805L136.518 104.356L136.921 103.354L140.372 104.745C140.98 104.99 141.505 105.025 141.947 104.849C142.396 104.676 142.727 104.327 142.939 103.8C143.154 103.266 143.159 102.772 142.954 102.318C142.746 101.872 142.322 101.52 141.684 101.263L138.312 99.9041L138.72 98.8912L144.819 101.349L144.411 102.362L143.543 102.012C143.774 102.338 143.906 102.706 143.939 103.116C143.969 103.534 143.9 103.95 143.733 104.366Z" fill="black"/></svg>